<svg width="16" height="17" viewBox="0 0 16 17" fill="none" xmlns="http://www.w3.org/2000/svg">
<path fill-rule="evenodd" clip-rule="evenodd" d="M8.50176 3.32733C8.65236 3.4147 8.77754 3.53989 8.86492 3.69049L13.8632 12.3061C14.1404 12.7838 13.9778 13.3957 13.5001 13.6729C13.3476 13.7613 13.1745 13.8079 12.9983 13.8079H3.00156C2.44927 13.8079 2.00156 13.3602 2.00156 12.8079C2.00156 12.6316 2.04814 12.4585 2.13658 12.3061L7.13497 3.69048C7.41211 3.21277 8.02405 3.05018 8.50176 3.32733ZM8.00495 10.5579C7.3146 10.5579 6.75495 11.1175 6.75495 11.8079C6.75495 12.4982 7.3146 13.0579 8.00495 13.0579C8.69531 13.0579 9.25495 12.4982 9.25495 11.8079C9.25495 11.1175 8.69531 10.5579 8.00495 10.5579ZM7.00495 5.80788H9.00495V9.30788H7.00495V5.80788Z" fill="#D92D20"/>
</svg>
